<?xml version="1.0" encoding="utf-8"?>
<svg version="1.1" id="Objects" xmlns="http://www.w3.org/2000/svg" xmlns:xlink="http://www.w3.org/1999/xlink" x="0px" y="0px"
	 viewBox="0 0 247.2 219.1" style="enable-background:new 0 0 247.2 219.1;" xml:space="preserve">
<path d="M27.4,219.1c-11.7,0-20.5-3.9-24.8-11.3c-4.3-7.4-3.4-16.9,2.5-27.1l96-165.1C107.1,5.6,115,0,123.6,0
	c8.6,0,16.6,5.6,22.5,15.7l96,165.1c5.9,10.1,6.8,19.6,2.5,27c-4.3,7.4-13.1,11.3-24.8,11.3H27.4z M111.5,173.5
	c0,6.9,5.5,12.2,12.2,12.2c7,0,12.4-5.4,12.4-12.2c0-6.9-5.4-12.2-12.4-12.2C116.9,161.2,111.5,166.6,111.5,173.5z M137.8,90.9
	c0-7.6-7.1-13.8-14.2-13.8c-7.1,0-14.1,6.3-14.1,13.8l3.7,50c0,7.3,3.4,10.7,10.3,10.7c7.3,0,10.7-3.4,10.7-10.7L137.8,90.9z"/>
</svg>
