<?xml version="1.0" encoding="utf-8"?>
<svg version="1.1" id="Objects" xmlns="http://www.w3.org/2000/svg" xmlns:xlink="http://www.w3.org/1999/xlink" x="0px" y="0px"
	 viewBox="0 0 231.1 231.1" style="enable-background:new 0 0 231.1 231.1;" xml:space="preserve">
<path d="M115.6,231.1C51.8,231.1,0,179.3,0,115.6C0,51.8,51.8,0,115.6,0c63.7,0,115.6,51.8,115.6,115.6
	C231.1,179.3,179.3,231.1,115.6,231.1z M115.5,78.3c8.4,0,14.1-5.7,14.1-12.9c0-7.2-5.5-12.9-14.1-12.9s-14,5.7-14,12.9
	C101.5,72.6,107,78.3,115.5,78.3z M111.7,178.7h7.8c4.7,0,7.2-2.6,7.2-7.2V98.6c0-4.7-2.6-7.4-7.2-7.4h-7.8c-4.7,0-7.2,2.8-7.2,7.4
	v72.9C104.5,176.1,107,178.7,111.7,178.7z"/>
</svg>
