<?xml version="1.0" encoding="utf-8"?>
<svg version="1.1" id="Objects" xmlns="http://www.w3.org/2000/svg" xmlns:xlink="http://www.w3.org/1999/xlink" x="0px" y="0px"
	 viewBox="0 0 256.2 256.3" style="enable-background:new 0 0 256.2 256.3;" xml:space="preserve">
<path d="M128.1,256.3c-9.3,0-18.1-3.6-24.7-10.2l-93.1-93.1c-13.6-13.6-13.6-35.8,0-49.5l93.1-93.1
	C110,3.6,118.8,0,128.1,0c9.3,0,18.1,3.6,24.7,10.2l93.1,93.1c13.6,13.6,13.6,35.8,0,49.5L152.9,246
	C146.3,252.6,137.5,256.3,128.1,256.3z M183.4,94.1L173.2,84c-1.6-1.6-4.2-1.6-5.8,0l-59.3,59.3L88.8,124c-1.6-1.6-4.2-1.6-5.8,0
	l-10.1,10.1c-1.6,1.6-1.6,4.2,0,5.8l22.2,22.2l0,0l2.4,2.4l7.7,7.7c1.6,1.6,4.2,1.6,5.8,0l10.1-10.1l0,0l62.2-62.2
	C185,98.3,185,95.7,183.4,94.1z"/>
</svg>
