<?xml version="1.0" encoding="utf-8"?>
<!-- Generator: Adobe Illustrator 21.1.0, SVG Export Plug-In . SVG Version: 6.00 Build 0)  -->
<svg version="1.1" id="Layer_1" xmlns="http://www.w3.org/2000/svg" xmlns:xlink="http://www.w3.org/1999/xlink" x="0px" y="0px"
	 viewBox="0 0 1477 80.3" style="enable-background:new 0 0 1477 80.3;" xml:space="preserve">
<style type="text/css">
	.st0{fill:none;stroke:#48FCFF;stroke-width:12;stroke-miterlimit:10;}
</style>
<path class="st0" d="M1477,74.3c0,0-18.1,0-35.4,0c-17.3,0-18.2-68.3-43.5-68.3s-26.3,68.3-45.8,68.3c-19.5,0-49.2,0-70.9,0
	c-21.6,0-17.6-68.3-42.3-68.3c-24.7,0-23.5,68.3-42.7,68.3c-19.2,0-137.2,0-158.8,0S1020,6,995.3,6c-24.7,0-23.5,45.7-42.7,45.7
	c-19.2,0-14.7-20.1-30.8-20.1S904,74.3,884.5,74.3c0,0-54.9,0-72.3,0c-17.3,0-19-42.8-35-42.8s-17.8,42.8-37.3,42.8
	c-19.5,0,7.4,0-14.2,0C704.2,74.3,708.2,6,683.4,6c-24.7,0-23.5,68.3-42.7,68.3s-77.6,0-95,0c-17.3,0-19-42.8-35-42.8
	S493,74.3,473.5,74.3c0,0,1.8,0-15.6,0s-19-42.8-35-42.8s-17.8,42.8-37.3,42.8c0,0-88.9,0-106.3,0C262,74.3,261.2,6,235.8,6
	S209.5,74.3,190,74.3s-49.2,0-70.9,0S101.6,6,76.8,6S53.3,74.3,34.2,74.3S0,74.3,0,74.3"/>
</svg>
